<svg width="161" height="79" viewBox="0 0 161 79" fill="none" xmlns="http://www.w3.org/2000/svg">
<path d="M90.2363 68.1934C89.7402 68.1934 89.2637 68.0957 88.8066 67.9004C88.3535 67.7051 87.9512 67.4238 87.5996 67.0566C87.252 66.6895 86.9746 66.2422 86.7676 65.7148C86.5605 65.1836 86.457 64.5859 86.457 63.9219C86.457 63.2578 86.5586 62.6562 86.7617 62.1172C86.9648 61.5742 87.2461 61.1074 87.6055 60.7168C87.9609 60.3301 88.3809 60.0312 88.8652 59.8203C89.3496 59.6094 89.8672 59.5039 90.418 59.5039C90.8281 59.5039 91.1992 59.5547 91.5312 59.6562C91.8633 59.7578 92.1797 59.9004 92.4805 60.084L92.7207 59.6855H93.1895L93.2422 62.6504H92.7617C92.6992 62.3613 92.6055 62.0488 92.4805 61.7129C92.3555 61.373 92.209 61.0859 92.041 60.8516C91.8535 60.5859 91.6309 60.3789 91.373 60.2305C91.1152 60.0781 90.8203 60.002 90.4883 60.002C90.1094 60.002 89.7559 60.0859 89.4277 60.2539C89.1035 60.4219 88.8223 60.6699 88.584 60.998C88.3574 61.3145 88.1797 61.7168 88.0508 62.2051C87.9219 62.6934 87.8574 63.2383 87.8574 63.8398C87.8574 64.3711 87.9238 64.8594 88.0566 65.3047C88.1934 65.7461 88.3867 66.1348 88.6367 66.4707C88.8867 66.8027 89.1816 67.0625 89.5215 67.25C89.8652 67.4375 90.248 67.5312 90.6699 67.5312C90.9863 67.5312 91.2773 67.4824 91.543 67.3848C91.8086 67.2832 92.0391 67.1504 92.2344 66.9863C92.4297 66.8145 92.6016 66.6191 92.75 66.4004C92.8984 66.1816 93.0195 65.9434 93.1133 65.6855L93.5527 65.8965C93.2168 66.7207 92.7715 67.3105 92.2168 67.666C91.6621 68.0176 91.002 68.1934 90.2363 68.1934ZM99.6055 67.8945C99.4219 67.9609 99.2598 68.0137 99.1191 68.0527C98.9824 68.0957 98.8262 68.1172 98.6504 68.1172C98.3457 68.1172 98.1016 68.0469 97.918 67.9062C97.7383 67.7617 97.623 67.5527 97.5723 67.2793H97.5371C97.2832 67.5605 97.0098 67.7754 96.7168 67.9238C96.4277 68.0723 96.0781 68.1465 95.668 68.1465C95.2344 68.1465 94.877 68.0137 94.5957 67.748C94.3184 67.4824 94.1797 67.1348 94.1797 66.7051C94.1797 66.4824 94.2109 66.2832 94.2734 66.1074C94.3359 65.9316 94.4297 65.7734 94.5547 65.6328C94.6523 65.5156 94.7812 65.4121 94.9414 65.3223C95.1016 65.2285 95.252 65.1543 95.3926 65.0996C95.5684 65.0332 95.9238 64.9102 96.459 64.7305C96.998 64.5508 97.3613 64.4102 97.5488 64.3086V63.7285C97.5488 63.6777 97.5371 63.5801 97.5137 63.4355C97.4941 63.291 97.4492 63.1543 97.3789 63.0254C97.3008 62.8809 97.1895 62.7559 97.0449 62.6504C96.9043 62.541 96.7031 62.4863 96.4414 62.4863C96.2617 62.4863 96.0938 62.5176 95.9375 62.5801C95.7852 62.6387 95.6777 62.7012 95.6152 62.7676C95.6152 62.8457 95.6328 62.9609 95.668 63.1133C95.707 63.2656 95.7266 63.4062 95.7266 63.5352C95.7266 63.6719 95.6641 63.7969 95.5391 63.9102C95.418 64.0234 95.248 64.0801 95.0293 64.0801C94.834 64.0801 94.6895 64.0117 94.5957 63.875C94.5059 63.7344 94.4609 63.5781 94.4609 63.4062C94.4609 63.2266 94.5234 63.0547 94.6484 62.8906C94.7773 62.7266 94.9434 62.5801 95.1465 62.4512C95.3223 62.3418 95.5352 62.25 95.7852 62.1758C96.0352 62.0977 96.2793 62.0586 96.5176 62.0586C96.8457 62.0586 97.1309 62.082 97.373 62.1289C97.6191 62.1719 97.8418 62.2676 98.041 62.416C98.2402 62.5605 98.3906 62.7578 98.4922 63.0078C98.5977 63.2539 98.6504 63.5723 98.6504 63.9629C98.6504 64.5215 98.6445 65.0176 98.6328 65.4512C98.6211 65.8809 98.6152 66.3516 98.6152 66.8633C98.6152 67.0156 98.6406 67.1367 98.6914 67.2266C98.7461 67.3164 98.8281 67.3926 98.9375 67.4551C98.9961 67.4902 99.0879 67.5098 99.2129 67.5137C99.3418 67.5176 99.4727 67.5195 99.6055 67.5195V67.8945ZM97.5605 64.8008C97.2285 64.8984 96.9375 64.9941 96.6875 65.0879C96.4375 65.1816 96.2051 65.2988 95.9902 65.4395C95.7949 65.5723 95.6406 65.7305 95.5273 65.9141C95.4141 66.0938 95.3574 66.3086 95.3574 66.5586C95.3574 66.8828 95.4414 67.1211 95.6094 67.2734C95.7812 67.4258 95.998 67.502 96.2598 67.502C96.5371 67.502 96.7812 67.4355 96.9922 67.3027C97.2031 67.166 97.3809 67.0059 97.5254 66.8223L97.5605 64.8008ZM106.32 68H103.496V67.6133C103.586 67.6055 103.678 67.5977 103.771 67.5898C103.865 67.582 103.947 67.5664 104.018 67.543C104.127 67.5078 104.211 67.4473 104.27 67.3613C104.328 67.2715 104.357 67.1562 104.357 67.0156V62.7031H102.752C102.752 63.6562 102.686 64.4766 102.553 65.1641C102.42 65.8516 102.248 66.4121 102.037 66.8457C101.83 67.2715 101.596 67.5898 101.334 67.8008C101.072 68.0117 100.805 68.1172 100.531 68.1172C100.25 68.1172 100.037 68.0449 99.8926 67.9004C99.748 67.752 99.6758 67.5801 99.6758 67.3848C99.6758 67.2441 99.7207 67.1113 99.8105 66.9863C99.9043 66.8613 100.039 66.7988 100.215 66.7988C100.379 66.7988 100.527 66.8457 100.66 66.9395C100.793 67.0332 100.922 67.1641 101.047 67.332C101.141 67.2461 101.25 67.0879 101.375 66.8574C101.504 66.623 101.621 66.334 101.727 65.9902C101.844 65.6191 101.939 65.2344 102.014 64.8359C102.088 64.4375 102.125 63.9805 102.125 63.4648C102.125 63.2617 102.1 63.1113 102.049 63.0137C101.998 62.916 101.918 62.8398 101.809 62.7852C101.734 62.7461 101.613 62.7109 101.445 62.6797C101.277 62.6445 101.141 62.6211 101.035 62.6094V62.2227H106.297V62.6094C106.184 62.6172 106.084 62.627 105.998 62.6387C105.916 62.6504 105.84 62.6641 105.77 62.6797C105.66 62.7109 105.578 62.7734 105.523 62.8672C105.473 62.957 105.447 63.0703 105.447 63.207V66.957C105.447 67.0938 105.471 67.2051 105.518 67.291C105.564 67.373 105.645 67.4375 105.758 67.4844C105.84 67.5234 105.928 67.5527 106.021 67.5723C106.119 67.5918 106.219 67.6055 106.32 67.6133V68ZM112.783 65.0527C112.783 65.459 112.719 65.8594 112.59 66.2539C112.461 66.6445 112.277 66.9766 112.039 67.25C111.77 67.5625 111.457 67.7949 111.102 67.9473C110.746 68.0996 110.348 68.1758 109.906 68.1758C109.539 68.1758 109.189 68.1074 108.857 67.9707C108.525 67.8301 108.23 67.627 107.973 67.3613C107.719 67.0996 107.516 66.7812 107.363 66.4062C107.215 66.0273 107.141 65.6035 107.141 65.1348C107.141 64.2324 107.402 63.4941 107.926 62.9199C108.453 62.3457 109.143 62.0586 109.994 62.0586C110.803 62.0586 111.469 62.332 111.992 62.8789C112.52 63.4219 112.783 64.1465 112.783 65.0527ZM111.57 65.0645C111.57 64.7715 111.541 64.4629 111.482 64.1387C111.424 63.8105 111.336 63.5332 111.219 63.3066C111.094 63.0645 110.93 62.8711 110.727 62.7266C110.523 62.5781 110.275 62.5039 109.982 62.5039C109.682 62.5039 109.424 62.5781 109.209 62.7266C108.998 62.875 108.826 63.0781 108.693 63.3359C108.568 63.5742 108.48 63.8457 108.43 64.1504C108.379 64.4551 108.354 64.75 108.354 65.0352C108.354 65.4102 108.383 65.7578 108.441 66.0781C108.504 66.3945 108.602 66.6777 108.734 66.9277C108.867 67.1777 109.033 67.375 109.232 67.5195C109.436 67.6602 109.686 67.7305 109.982 67.7305C110.471 67.7305 110.857 67.4941 111.143 67.0215C111.428 66.5488 111.57 65.8965 111.57 65.0645ZM120.096 68H117.271V67.6133C117.361 67.6055 117.453 67.5977 117.547 67.5898C117.645 67.582 117.729 67.5664 117.799 67.543C117.908 67.5078 117.992 67.4473 118.051 67.3613C118.109 67.2715 118.139 67.1562 118.139 67.0156V65.1758H115.566V66.957C115.566 67.0898 115.594 67.1992 115.648 67.2852C115.703 67.3711 115.785 67.4375 115.895 67.4844C115.977 67.5234 116.064 67.5527 116.158 67.5723C116.256 67.5918 116.355 67.6055 116.457 67.6133V68H113.633V67.6133C113.723 67.6055 113.814 67.5977 113.908 67.5898C114.006 67.582 114.09 67.5664 114.16 67.543C114.27 67.5078 114.35 67.4473 114.4 67.3613C114.455 67.2715 114.482 67.1562 114.482 67.0156V63.2656C114.482 63.1367 114.455 63.0293 114.4 62.9434C114.346 62.8535 114.264 62.7852 114.154 62.7383C114.053 62.6914 113.953 62.6602 113.855 62.6445C113.762 62.6289 113.674 62.6172 113.592 62.6094V62.2227H116.416V62.6094C116.303 62.6172 116.203 62.627 116.117 62.6387C116.035 62.6504 115.959 62.6641 115.889 62.6797C115.779 62.7109 115.697 62.7734 115.643 62.8672C115.592 62.957 115.566 63.0703 115.566 63.207V64.6953H118.139V63.2656C118.139 63.1367 118.111 63.0293 118.057 62.9434C118.002 62.8535 117.92 62.7852 117.811 62.7383C117.709 62.6914 117.609 62.6602 117.512 62.6445C117.418 62.6289 117.33 62.6172 117.248 62.6094V62.2227H120.072V62.6094C119.959 62.6172 119.859 62.627 119.773 62.6387C119.691 62.6504 119.615 62.6641 119.545 62.6797C119.436 62.7109 119.354 62.7734 119.299 62.8672C119.248 62.957 119.223 63.0703 119.223 63.207V66.957C119.223 67.0938 119.246 67.2051 119.293 67.291C119.34 67.373 119.42 67.4375 119.533 67.4844C119.615 67.5234 119.703 67.5527 119.797 67.5723C119.895 67.5918 119.994 67.6055 120.096 67.6133V68ZM127.396 65.2754H123.904V64.3555H127.396V65.2754ZM140.762 68H131.199V67.6133C131.289 67.6055 131.385 67.5977 131.486 67.5898C131.592 67.582 131.68 67.5664 131.75 67.543C131.859 67.5078 131.939 67.4473 131.99 67.3613C132.045 67.2715 132.072 67.1562 132.072 67.0156V63.2656C132.072 63.1367 132.049 63.0293 132.002 62.9434C131.955 62.8574 131.875 62.7891 131.762 62.7383C131.66 62.6914 131.561 62.6602 131.463 62.6445C131.369 62.6289 131.281 62.6172 131.199 62.6094V62.2227H133.965V62.6094C133.852 62.6172 133.758 62.627 133.684 62.6387C133.609 62.6504 133.537 62.6641 133.467 62.6797C133.346 62.7148 133.264 62.7832 133.221 62.8848C133.182 62.9863 133.162 63.0938 133.162 63.207V66.9805C133.162 67.1914 133.211 67.3379 133.309 67.4199C133.406 67.498 133.541 67.5391 133.713 67.543C133.803 67.543 133.898 67.5469 134 67.5547C134.102 67.5586 134.227 67.5605 134.375 67.5605C134.492 67.5605 134.6 67.5586 134.697 67.5547C134.795 67.5508 134.918 67.5469 135.066 67.543C135.234 67.5352 135.336 67.498 135.371 67.4316C135.406 67.3652 135.424 67.25 135.424 67.0859V63.2656C135.424 63.1367 135.404 63.0293 135.365 62.9434C135.326 62.8535 135.252 62.7852 135.143 62.7383C135.041 62.6914 134.945 62.6602 134.855 62.6445C134.77 62.6289 134.684 62.6172 134.598 62.6094V62.2227H137.322V62.6094C137.209 62.6172 137.111 62.627 137.029 62.6387C136.951 62.6504 136.877 62.6641 136.807 62.6797C136.689 62.7109 136.611 62.7773 136.572 62.8789C136.533 62.9805 136.514 63.0898 136.514 63.207V66.9922C136.514 67.2031 136.562 67.3477 136.66 67.4258C136.762 67.5 136.896 67.5391 137.064 67.543C137.15 67.543 137.252 67.5469 137.369 67.5547C137.49 67.5586 137.613 67.5605 137.738 67.5605C137.82 67.5605 137.924 67.5586 138.049 67.5547C138.178 67.5508 138.301 67.5469 138.418 67.543C138.586 67.5352 138.688 67.498 138.723 67.4316C138.758 67.3652 138.775 67.25 138.775 67.0859V63.2656C138.775 63.1367 138.756 63.0293 138.717 62.9434C138.678 62.8535 138.604 62.7852 138.494 62.7383C138.393 62.6914 138.297 62.6602 138.207 62.6445C138.121 62.6289 138.035 62.6172 137.949 62.6094V62.2227H140.715V62.6094C140.602 62.6172 140.502 62.627 140.416 62.6387C140.334 62.6504 140.258 62.6641 140.188 62.6797C140.078 62.7109 139.996 62.7734 139.941 62.8672C139.891 62.957 139.865 63.0703 139.865 63.207V66.957C139.865 67.0938 139.889 67.2051 139.936 67.291C139.982 67.373 140.062 67.4375 140.176 67.4844C140.262 67.5234 140.354 67.5527 140.451 67.5723C140.553 67.5918 140.656 67.6055 140.762 67.6133V68ZM146.668 64.0742H146.311C146.275 63.9648 146.223 63.8359 146.152 63.6875C146.086 63.5391 146.012 63.3984 145.93 63.2656C145.844 63.1211 145.746 62.9941 145.637 62.8848C145.531 62.7715 145.42 62.707 145.303 62.6914C145.182 62.6797 145.047 62.6719 144.898 62.668C144.75 62.6602 144.623 62.6562 144.518 62.6562V66.957C144.518 67.0898 144.545 67.1992 144.6 67.2852C144.654 67.3711 144.736 67.4375 144.846 67.4844C144.932 67.5234 145.029 67.5527 145.139 67.5723C145.248 67.5918 145.355 67.6055 145.461 67.6133V68H142.52V67.6133C142.609 67.6055 142.711 67.5977 142.824 67.5898C142.941 67.582 143.035 67.5664 143.105 67.543C143.215 67.5078 143.295 67.4473 143.346 67.3613C143.4 67.2715 143.428 67.1562 143.428 67.0156V62.6562C143.303 62.6602 143.162 62.666 143.006 62.6738C142.85 62.6777 142.727 62.6836 142.637 62.6914C142.535 62.6992 142.426 62.7637 142.309 62.8848C142.195 63.0059 142.096 63.1328 142.01 63.2656C141.928 63.3984 141.852 63.5469 141.781 63.7109C141.711 63.8711 141.662 63.9922 141.635 64.0742H141.277V62.2227H146.668V64.0742ZM152.85 65.0527C152.85 65.459 152.785 65.8594 152.656 66.2539C152.527 66.6445 152.344 66.9766 152.105 67.25C151.836 67.5625 151.523 67.7949 151.168 67.9473C150.812 68.0996 150.414 68.1758 149.973 68.1758C149.605 68.1758 149.256 68.1074 148.924 67.9707C148.592 67.8301 148.297 67.627 148.039 67.3613C147.785 67.0996 147.582 66.7812 147.43 66.4062C147.281 66.0273 147.207 65.6035 147.207 65.1348C147.207 64.2324 147.469 63.4941 147.992 62.9199C148.52 62.3457 149.209 62.0586 150.061 62.0586C150.869 62.0586 151.535 62.332 152.059 62.8789C152.586 63.4219 152.85 64.1465 152.85 65.0527ZM151.637 65.0645C151.637 64.7715 151.607 64.4629 151.549 64.1387C151.49 63.8105 151.402 63.5332 151.285 63.3066C151.16 63.0645 150.996 62.8711 150.793 62.7266C150.59 62.5781 150.342 62.5039 150.049 62.5039C149.748 62.5039 149.49 62.5781 149.275 62.7266C149.064 62.875 148.893 63.0781 148.76 63.3359C148.635 63.5742 148.547 63.8457 148.496 64.1504C148.445 64.4551 148.42 64.75 148.42 65.0352C148.42 65.4102 148.449 65.7578 148.508 66.0781C148.57 66.3945 148.668 66.6777 148.801 66.9277C148.934 67.1777 149.1 67.375 149.299 67.5195C149.502 67.6602 149.752 67.7305 150.049 67.7305C150.537 67.7305 150.924 67.4941 151.209 67.0215C151.494 66.5488 151.637 65.8965 151.637 65.0645ZM158.967 62.9082C159.197 63.1816 159.375 63.5 159.5 63.8633C159.629 64.2227 159.693 64.6348 159.693 65.0996C159.693 65.5566 159.617 65.9746 159.465 66.3535C159.312 66.7285 159.111 67.0488 158.861 67.3145C158.6 67.584 158.309 67.791 157.988 67.9355C157.668 68.0801 157.328 68.1523 156.969 68.1523C156.621 68.1523 156.336 68.1133 156.113 68.0352C155.891 67.957 155.709 67.8652 155.568 67.7598H155.521V69.4941C155.521 69.6348 155.549 69.752 155.604 69.8457C155.658 69.9395 155.742 70.0078 155.855 70.0508C155.949 70.0859 156.082 70.1191 156.254 70.1504C156.43 70.1855 156.574 70.2051 156.688 70.209V70.6016H153.459V70.209C153.58 70.2012 153.697 70.1914 153.811 70.1797C153.924 70.168 154.025 70.1484 154.115 70.1211C154.232 70.082 154.314 70.0137 154.361 69.916C154.408 69.8184 154.432 69.7031 154.432 69.5703V63.4238C154.432 63.3066 154.402 63.1934 154.344 63.084C154.285 62.9746 154.209 62.8867 154.115 62.8203C154.045 62.7734 153.947 62.7383 153.822 62.7148C153.697 62.6875 153.576 62.6699 153.459 62.6621V62.2812L155.428 62.1523L155.51 62.2227V62.873L155.557 62.8848C155.76 62.6504 156.012 62.4551 156.312 62.2988C156.613 62.1426 156.912 62.0645 157.209 62.0645C157.568 62.0645 157.896 62.1406 158.193 62.293C158.494 62.4453 158.752 62.6504 158.967 62.9082ZM158.012 67.0625C158.168 66.8203 158.283 66.5391 158.357 66.2188C158.432 65.8984 158.469 65.541 158.469 65.1465C158.469 64.8574 158.438 64.5625 158.375 64.2617C158.312 63.9609 158.215 63.6992 158.082 63.4766C157.949 63.25 157.775 63.0664 157.561 62.9258C157.346 62.7852 157.088 62.7148 156.787 62.7148C156.498 62.7148 156.252 62.7793 156.049 62.9082C155.846 63.0332 155.67 63.1836 155.521 63.3594V66.7754C155.557 66.8809 155.613 66.9902 155.691 67.1035C155.773 67.2168 155.863 67.3145 155.961 67.3965C156.082 67.4941 156.213 67.5742 156.354 67.6367C156.494 67.6953 156.666 67.7246 156.869 67.7246C157.088 67.7246 157.299 67.668 157.502 67.5547C157.705 67.4375 157.875 67.2734 158.012 67.0625Z" fill="white"/>
<path d="M42.6855 34.4629C42.6855 37.998 42.0215 41.0645 40.6934 43.6621C39.3652 46.2598 37.6367 48.3887 35.5078 50.0488C33.3594 51.709 30.9473 52.9492 28.2715 53.7695C25.5957 54.5898 22.832 55 19.9805 55H2.75391V52.9199C3.32031 52.9199 4.05273 52.8711 4.95117 52.7734C5.86914 52.6562 6.47461 52.5293 6.76758 52.3926C7.35352 52.1387 7.77344 51.7676 8.02734 51.2793C8.30078 50.7715 8.4375 50.166 8.4375 49.4629V19.4629C8.4375 18.7988 8.32031 18.2031 8.08594 17.6758C7.87109 17.1484 7.43164 16.7285 6.76758 16.416C6.16211 16.123 5.50781 15.9082 4.80469 15.7715C4.10156 15.6348 3.49609 15.5469 2.98828 15.5078V13.4277H21.1523C23.6523 13.4277 26.1133 13.8184 28.5352 14.5996C30.957 15.3613 33.0664 16.3965 34.8633 17.7051C37.3047 19.4434 39.2188 21.7188 40.6055 24.5312C41.9922 27.3438 42.6855 30.6543 42.6855 34.4629ZM35.5078 34.4336C35.5078 31.6406 35.1367 29.1211 34.3945 26.875C33.6523 24.6094 32.5684 22.6367 31.1426 20.957C29.7949 19.3555 28.1348 18.0957 26.1621 17.1777C24.209 16.2598 22.0312 15.8008 19.6289 15.8008C18.8281 15.8008 17.9199 15.8203 16.9043 15.8594C15.9082 15.8789 15.166 15.8984 14.6777 15.918V47.8809C14.6777 49.6582 15.1953 50.8887 16.2305 51.5723C17.2656 52.2559 18.8574 52.5977 21.0059 52.5977C23.4863 52.5977 25.6543 52.1582 27.5098 51.2793C29.3652 50.4004 30.8691 49.1797 32.0215 47.6172C33.2324 45.9766 34.1113 44.082 34.6582 41.9336C35.2246 39.7656 35.5078 37.2656 35.5078 34.4336ZM61.084 55H47.1094V53.0664C47.5586 53.0273 48.0176 52.9883 48.4863 52.9492C48.9746 52.9102 49.3945 52.832 49.7461 52.7148C50.293 52.5391 50.6934 52.2363 50.9473 51.8066C51.2207 51.3574 51.3574 50.7812 51.3574 50.0781V32.2363C51.3574 31.6113 51.2109 31.0449 50.918 30.5371C50.6445 30.0098 50.2539 29.5703 49.7461 29.2188C49.375 28.9844 48.8379 28.7891 48.1348 28.6328C47.4316 28.457 46.7871 28.3496 46.2012 28.3105V26.4062L56.3965 25.7617L56.8066 26.1719V49.7266C56.8066 50.4102 56.9336 50.9766 57.1875 51.4258C57.4609 51.875 57.8809 52.207 58.4473 52.4219C58.877 52.5977 59.2969 52.7441 59.707 52.8613C60.1172 52.959 60.5762 53.0273 61.084 53.0664V55ZM57.3926 14.3652C57.3926 15.4785 57.0215 16.4551 56.2793 17.2949C55.5566 18.1152 54.6582 18.5254 53.584 18.5254C52.5879 18.5254 51.7188 18.1348 50.9766 17.3535C50.2539 16.5527 49.8926 15.6445 49.8926 14.6289C49.8926 13.5547 50.2539 12.6172 50.9766 11.8164C51.7188 11.0156 52.5879 10.6152 53.584 10.6152C54.6973 10.6152 55.6055 10.9961 56.3086 11.7578C57.0312 12.5 57.3926 13.3691 57.3926 14.3652ZM92.7832 40.2637C92.7832 42.2949 92.4609 44.2969 91.8164 46.2695C91.1719 48.2227 90.2539 49.8828 89.0625 51.25C87.7148 52.8125 86.1523 53.9746 84.375 54.7363C82.5977 55.498 80.6055 55.8789 78.3984 55.8789C76.5625 55.8789 74.8145 55.5371 73.1543 54.8535C71.4941 54.1504 70.0195 53.1348 68.7305 51.8066C67.4609 50.498 66.4453 48.9062 65.6836 47.0312C64.9414 45.1367 64.5703 43.0176 64.5703 40.6738C64.5703 36.1621 65.8789 32.4707 68.4961 29.5996C71.1328 26.7285 74.5801 25.293 78.8379 25.293C82.8809 25.293 86.2109 26.6602 88.8281 29.3945C91.4648 32.1094 92.7832 35.7324 92.7832 40.2637ZM86.7188 40.3223C86.7188 38.8574 86.5723 37.3145 86.2793 35.6934C85.9863 34.0527 85.5469 32.666 84.9609 31.5332C84.3359 30.3223 83.5156 29.3555 82.5 28.6328C81.4844 27.8906 80.2441 27.5195 78.7793 27.5195C77.2754 27.5195 75.9863 27.8906 74.9121 28.6328C73.8574 29.375 72.998 30.3906 72.334 31.6797C71.709 32.8711 71.2695 34.2285 71.0156 35.752C70.7617 37.2754 70.6348 38.75 70.6348 40.1758C70.6348 42.0508 70.7812 43.7891 71.0742 45.3906C71.3867 46.9727 71.875 48.3887 72.5391 49.6387C73.2031 50.8887 74.0332 51.875 75.0293 52.5977C76.0449 53.3008 77.2949 53.6523 78.7793 53.6523C81.2207 53.6523 83.1543 52.4707 84.5801 50.1074C86.0059 47.7441 86.7188 44.4824 86.7188 40.3223ZM128.877 55H114.727V53.0664C115.176 53.0273 115.664 52.9883 116.191 52.9492C116.738 52.9102 117.188 52.832 117.539 52.7148C118.086 52.5391 118.486 52.2363 118.74 51.8066C119.014 51.3574 119.15 50.7812 119.15 50.0781V35.2246C119.15 33.1738 118.662 31.5918 117.686 30.4785C116.729 29.3652 115.557 28.8086 114.17 28.8086C113.135 28.8086 112.188 28.9746 111.328 29.3066C110.469 29.6191 109.707 30.0098 109.043 30.4785C108.398 30.9277 107.881 31.416 107.49 31.9434C107.119 32.4512 106.846 32.8613 106.67 33.1738V49.7852C106.67 50.4492 106.807 50.9961 107.08 51.4258C107.354 51.8555 107.764 52.1875 108.311 52.4219C108.721 52.6172 109.16 52.7637 109.629 52.8613C110.117 52.959 110.615 53.0273 111.123 53.0664V55H96.9727V53.0664C97.4219 53.0273 97.8809 52.9883 98.3496 52.9492C98.8379 52.9102 99.2578 52.832 99.6094 52.7148C100.156 52.5391 100.557 52.2363 100.811 51.8066C101.084 51.3574 101.221 50.7812 101.221 50.0781V32.2363C101.221 31.5723 101.074 30.9668 100.781 30.4199C100.508 29.8535 100.117 29.3945 99.6094 29.043C99.2383 28.8086 98.7988 28.6426 98.291 28.5449C97.7832 28.4277 97.2363 28.3496 96.6504 28.3105V26.4062L106.26 25.7617L106.67 26.1719V30.2441H106.816C107.285 29.7754 107.871 29.2188 108.574 28.5742C109.277 27.9102 109.941 27.373 110.566 26.9629C111.289 26.4941 112.148 26.1035 113.145 25.791C114.141 25.4785 115.264 25.3223 116.514 25.3223C119.287 25.3223 121.338 26.1914 122.666 27.9297C124.014 29.6484 124.688 31.9434 124.688 34.8145V49.8438C124.688 50.5273 124.805 51.084 125.039 51.5137C125.273 51.9238 125.674 52.2461 126.24 52.4805C126.709 52.6758 127.109 52.8125 127.441 52.8906C127.793 52.9688 128.271 53.0273 128.877 53.0664V55ZM159.785 54.4727C158.867 54.8047 158.057 55.0684 157.354 55.2637C156.67 55.4785 155.889 55.5859 155.01 55.5859C153.486 55.5859 152.266 55.2344 151.348 54.5312C150.449 53.8086 149.873 52.7637 149.619 51.3965H149.443C148.174 52.8027 146.807 53.877 145.342 54.6191C143.896 55.3613 142.148 55.7324 140.098 55.7324C137.93 55.7324 136.143 55.0684 134.736 53.7402C133.35 52.4121 132.656 50.6738 132.656 48.5254C132.656 47.4121 132.812 46.416 133.125 45.5371C133.438 44.6582 133.906 43.8672 134.531 43.1641C135.02 42.5781 135.664 42.0605 136.465 41.6113C137.266 41.1426 138.018 40.7715 138.721 40.498C139.6 40.166 141.377 39.5508 144.053 38.6523C146.748 37.7539 148.564 37.0508 149.502 36.543V33.6426C149.502 33.3887 149.443 32.9004 149.326 32.1777C149.229 31.4551 149.004 30.7715 148.652 30.127C148.262 29.4043 147.705 28.7793 146.982 28.252C146.279 27.7051 145.273 27.4316 143.965 27.4316C143.066 27.4316 142.227 27.5879 141.445 27.9004C140.684 28.1934 140.146 28.5059 139.834 28.8379C139.834 29.2285 139.922 29.8047 140.098 30.5664C140.293 31.3281 140.391 32.0312 140.391 32.6758C140.391 33.3594 140.078 33.9844 139.453 34.5508C138.848 35.1172 137.998 35.4004 136.904 35.4004C135.928 35.4004 135.205 35.0586 134.736 34.375C134.287 33.6719 134.062 32.8906 134.062 32.0312C134.062 31.1328 134.375 30.2734 135 29.4531C135.645 28.6328 136.475 27.9004 137.49 27.2559C138.369 26.709 139.434 26.25 140.684 25.8789C141.934 25.4883 143.154 25.293 144.346 25.293C145.986 25.293 147.412 25.4102 148.623 25.6445C149.854 25.8594 150.967 26.3379 151.963 27.0801C152.959 27.8027 153.711 28.7891 154.219 30.0391C154.746 31.2695 155.01 32.8613 155.01 34.8145C155.01 37.6074 154.98 40.0879 154.922 42.2559C154.863 44.4043 154.834 46.7578 154.834 49.3164C154.834 50.0781 154.961 50.6836 155.215 51.1328C155.488 51.582 155.898 51.9629 156.445 52.2754C156.738 52.4512 157.197 52.5488 157.822 52.5684C158.467 52.5879 159.121 52.5977 159.785 52.5977V54.4727ZM149.561 39.0039C147.9 39.4922 146.445 39.9707 145.195 40.4395C143.945 40.9082 142.783 41.4941 141.709 42.1973C140.732 42.8613 139.961 43.6523 139.395 44.5703C138.828 45.4688 138.545 46.543 138.545 47.793C138.545 49.4141 138.965 50.6055 139.805 51.3672C140.664 52.1289 141.748 52.5098 143.057 52.5098C144.443 52.5098 145.664 52.1777 146.719 51.5137C147.773 50.8301 148.662 50.0293 149.385 49.1113L149.561 39.0039Z" fill="white"/>
</svg>
