<svg width="375" height="155" viewBox="0 0 375 155" fill="none" xmlns="http://www.w3.org/2000/svg">
<path d="M99.5996 80.0801C99.5996 88.3288 98.0501 95.4837 94.9512 101.545C91.8522 107.606 87.819 112.574 82.8516 116.447C77.8385 120.321 72.2103 123.215 65.9668 125.129C59.7233 127.043 53.2747 128 46.6211 128H6.42578V123.146C7.7474 123.146 9.45638 123.033 11.5527 122.805C13.6947 122.531 15.1074 122.235 15.791 121.916C17.1582 121.324 18.138 120.458 18.7305 119.318C19.3685 118.133 19.6875 116.721 19.6875 115.08V45.0801C19.6875 43.5306 19.4141 42.1406 18.8672 40.9102C18.3659 39.6797 17.3405 38.6999 15.791 37.9707C14.3783 37.2871 12.8516 36.7858 11.2109 36.4668C9.57031 36.1478 8.15755 35.9427 6.97266 35.8516V30.998H49.3555C55.1888 30.998 60.931 31.9095 66.582 33.7324C72.2331 35.5098 77.1549 37.9251 81.3477 40.9785C87.0443 45.0345 91.5104 50.3438 94.7461 56.9062C97.9818 63.4688 99.5996 71.1934 99.5996 80.0801ZM82.8516 80.0117C82.8516 73.4948 81.9857 67.6159 80.2539 62.375C78.5221 57.0885 75.9928 52.4857 72.666 48.5664C69.5215 44.8294 65.6478 41.89 61.0449 39.748C56.4876 37.6061 51.4062 36.5352 45.8008 36.5352C43.9323 36.5352 41.8132 36.5807 39.4434 36.6719C37.1191 36.7174 35.3874 36.763 34.248 36.8086V111.389C34.248 115.536 35.4557 118.407 37.8711 120.002C40.2865 121.597 44.0007 122.395 49.0137 122.395C54.8014 122.395 59.86 121.369 64.1895 119.318C68.5189 117.268 72.028 114.419 74.7168 110.773C77.5423 106.945 79.5931 102.525 80.8691 97.5117C82.1908 92.4531 82.8516 86.6198 82.8516 80.0117ZM142.529 128H109.922V123.488C110.97 123.397 112.041 123.306 113.135 123.215C114.274 123.124 115.254 122.941 116.074 122.668C117.35 122.258 118.285 121.551 118.877 120.549C119.515 119.501 119.834 118.156 119.834 116.516V74.8848C119.834 73.4264 119.492 72.1048 118.809 70.9199C118.171 69.6895 117.259 68.6641 116.074 67.8438C115.208 67.2969 113.955 66.8411 112.314 66.4766C110.674 66.0664 109.17 65.8158 107.803 65.7246V61.2812L131.592 59.7773L132.549 60.7344V115.695C132.549 117.29 132.845 118.612 133.438 119.66C134.076 120.708 135.055 121.483 136.377 121.984C137.38 122.395 138.359 122.736 139.316 123.01C140.273 123.238 141.344 123.397 142.529 123.488V128ZM133.916 33.1855C133.916 35.7832 133.05 38.0618 131.318 40.0215C129.632 41.9355 127.536 42.8926 125.029 42.8926C122.705 42.8926 120.677 41.9811 118.945 40.1582C117.259 38.2897 116.416 36.1706 116.416 33.8008C116.416 31.2943 117.259 29.1068 118.945 27.2383C120.677 25.3698 122.705 24.4355 125.029 24.4355C127.627 24.4355 129.746 25.3242 131.387 27.1016C133.073 28.8333 133.916 30.8613 133.916 33.1855ZM216.494 93.6152C216.494 98.3548 215.742 103.026 214.238 107.629C212.734 112.186 210.592 116.06 207.812 119.25C204.668 122.896 201.022 125.607 196.875 127.385C192.728 129.162 188.079 130.051 182.93 130.051C178.646 130.051 174.567 129.253 170.693 127.658C166.82 126.018 163.379 123.648 160.371 120.549C157.409 117.495 155.039 113.781 153.262 109.406C151.53 104.986 150.664 100.041 150.664 94.5723C150.664 84.0449 153.717 75.4316 159.824 68.7324C165.977 62.0332 174.02 58.6836 183.955 58.6836C193.389 58.6836 201.159 61.8737 207.266 68.2539C213.418 74.5885 216.494 83.0423 216.494 93.6152ZM202.344 93.752C202.344 90.334 202.002 86.7337 201.318 82.9512C200.635 79.123 199.609 75.8874 198.242 73.2441C196.784 70.4186 194.87 68.1628 192.5 66.4766C190.13 64.7448 187.236 63.8789 183.818 63.8789C180.309 63.8789 177.301 64.7448 174.795 66.4766C172.334 68.2083 170.329 70.5781 168.779 73.5859C167.321 76.3659 166.296 79.5332 165.703 83.0879C165.111 86.6426 164.814 90.0833 164.814 93.4102C164.814 97.7852 165.156 101.841 165.84 105.578C166.569 109.27 167.708 112.574 169.258 115.49C170.807 118.407 172.744 120.708 175.068 122.395C177.438 124.035 180.355 124.855 183.818 124.855C189.515 124.855 194.027 122.098 197.354 116.584C200.68 111.07 202.344 103.459 202.344 93.752ZM300.713 128H267.695V123.488C268.743 123.397 269.883 123.306 271.113 123.215C272.389 123.124 273.438 122.941 274.258 122.668C275.534 122.258 276.468 121.551 277.061 120.549C277.699 119.501 278.018 118.156 278.018 116.516V81.8574C278.018 77.0723 276.878 73.3809 274.6 70.7832C272.367 68.1855 269.632 66.8867 266.396 66.8867C263.981 66.8867 261.771 67.2741 259.766 68.0488C257.76 68.778 255.983 69.6895 254.434 70.7832C252.93 71.8314 251.722 72.9707 250.811 74.2012C249.945 75.3861 249.307 76.3431 248.896 77.0723V115.832C248.896 117.382 249.215 118.658 249.854 119.66C250.492 120.663 251.449 121.438 252.725 121.984C253.682 122.44 254.707 122.782 255.801 123.01C256.94 123.238 258.102 123.397 259.287 123.488V128H226.27V123.488C227.318 123.397 228.389 123.306 229.482 123.215C230.622 123.124 231.602 122.941 232.422 122.668C233.698 122.258 234.632 121.551 235.225 120.549C235.863 119.501 236.182 118.156 236.182 116.516V74.8848C236.182 73.3353 235.84 71.9225 235.156 70.6465C234.518 69.3249 233.607 68.2539 232.422 67.4336C231.556 66.8867 230.531 66.4993 229.346 66.2715C228.161 65.998 226.885 65.8158 225.518 65.7246V61.2812L247.939 59.7773L248.896 60.7344V70.2363H249.238C250.332 69.1426 251.699 67.8438 253.34 66.3398C254.98 64.7904 256.53 63.5371 257.988 62.5801C259.674 61.4863 261.68 60.5749 264.004 59.8457C266.328 59.1165 268.949 58.752 271.865 58.752C278.337 58.752 283.122 60.7799 286.221 64.8359C289.365 68.8464 290.938 74.2012 290.938 80.9004V115.969C290.938 117.564 291.211 118.863 291.758 119.865C292.305 120.822 293.239 121.574 294.561 122.121C295.654 122.577 296.589 122.896 297.363 123.078C298.184 123.26 299.3 123.397 300.713 123.488V128ZM372.832 126.77C370.69 127.544 368.799 128.16 367.158 128.615C365.563 129.117 363.74 129.367 361.689 129.367C358.135 129.367 355.286 128.547 353.145 126.906C351.048 125.22 349.704 122.782 349.111 119.592H348.701C345.739 122.873 342.549 125.38 339.131 127.111C335.758 128.843 331.68 129.709 326.895 129.709C321.836 129.709 317.666 128.16 314.385 125.061C311.149 121.962 309.531 117.906 309.531 112.893C309.531 110.295 309.896 107.971 310.625 105.92C311.354 103.869 312.448 102.023 313.906 100.383C315.046 99.0156 316.549 97.8079 318.418 96.7598C320.286 95.666 322.041 94.8001 323.682 94.1621C325.732 93.3874 329.88 91.9518 336.123 89.8555C342.412 87.7591 346.65 86.1185 348.838 84.9336V78.166C348.838 77.5736 348.701 76.4342 348.428 74.748C348.2 73.0618 347.676 71.4668 346.855 69.9629C345.944 68.2767 344.645 66.8184 342.959 65.5879C341.318 64.3118 338.971 63.6738 335.918 63.6738C333.822 63.6738 331.862 64.0384 330.039 64.7676C328.262 65.4512 327.008 66.1803 326.279 66.9551C326.279 67.8665 326.484 69.2109 326.895 70.9883C327.35 72.7656 327.578 74.4062 327.578 75.9102C327.578 77.5052 326.849 78.9635 325.391 80.2852C323.978 81.6068 321.995 82.2676 319.443 82.2676C317.165 82.2676 315.479 81.4701 314.385 79.875C313.337 78.2344 312.812 76.4115 312.812 74.4062C312.812 72.3099 313.542 70.3047 315 68.3906C316.504 66.4766 318.441 64.7676 320.811 63.2637C322.861 61.9876 325.345 60.9167 328.262 60.0508C331.178 59.1393 334.027 58.6836 336.807 58.6836C340.635 58.6836 343.962 58.957 346.787 59.5039C349.658 60.0052 352.256 61.1217 354.58 62.8535C356.904 64.5397 358.659 66.8411 359.844 69.7578C361.074 72.6289 361.689 76.3431 361.689 80.9004C361.689 87.4173 361.621 93.2051 361.484 98.2637C361.348 103.277 361.279 108.768 361.279 114.738C361.279 116.516 361.576 117.928 362.168 118.977C362.806 120.025 363.763 120.913 365.039 121.643C365.723 122.053 366.794 122.281 368.252 122.326C369.756 122.372 371.283 122.395 372.832 122.395V126.77ZM348.975 90.6758C345.101 91.8151 341.706 92.9316 338.789 94.0254C335.872 95.1191 333.161 96.4863 330.654 98.127C328.376 99.6764 326.576 101.522 325.254 103.664C323.932 105.76 323.271 108.267 323.271 111.184C323.271 114.966 324.251 117.746 326.211 119.523C328.216 121.301 330.745 122.189 333.799 122.189C337.035 122.189 339.883 121.415 342.344 119.865C344.805 118.27 346.878 116.402 348.564 114.26L348.975 90.6758Z" fill="black"/>
<path d="M247.868 150.322C247.041 150.322 246.247 150.16 245.485 149.834C244.73 149.508 244.059 149.04 243.473 148.428C242.894 147.816 242.432 147.07 242.086 146.191C241.741 145.306 241.569 144.31 241.569 143.203C241.569 142.096 241.738 141.094 242.077 140.195C242.415 139.29 242.884 138.512 243.483 137.861C244.075 137.217 244.775 136.719 245.583 136.367C246.39 136.016 247.253 135.84 248.17 135.84C248.854 135.84 249.473 135.924 250.026 136.094C250.579 136.263 251.107 136.501 251.608 136.807L252.008 136.143H252.79L252.878 141.084H252.077C251.973 140.602 251.816 140.081 251.608 139.521C251.4 138.955 251.155 138.477 250.876 138.086C250.563 137.643 250.192 137.298 249.762 137.051C249.333 136.797 248.841 136.67 248.288 136.67C247.656 136.67 247.067 136.81 246.52 137.09C245.98 137.37 245.511 137.783 245.114 138.33C244.736 138.857 244.44 139.528 244.225 140.342C244.01 141.156 243.903 142.064 243.903 143.066C243.903 143.952 244.014 144.766 244.235 145.508C244.463 146.243 244.785 146.891 245.202 147.451C245.618 148.005 246.11 148.438 246.676 148.75C247.249 149.062 247.887 149.219 248.59 149.219C249.118 149.219 249.603 149.137 250.045 148.975C250.488 148.805 250.872 148.584 251.198 148.311C251.523 148.024 251.81 147.699 252.057 147.334C252.305 146.969 252.506 146.572 252.663 146.143L253.395 146.494C252.835 147.868 252.093 148.851 251.169 149.443C250.244 150.029 249.144 150.322 247.868 150.322ZM263.483 149.824C263.177 149.935 262.907 150.023 262.672 150.088C262.445 150.16 262.184 150.195 261.891 150.195C261.383 150.195 260.976 150.078 260.67 149.844C260.371 149.603 260.179 149.255 260.094 148.799H260.036C259.613 149.268 259.157 149.626 258.669 149.873C258.187 150.12 257.604 150.244 256.92 150.244C256.198 150.244 255.602 150.023 255.133 149.58C254.671 149.137 254.44 148.558 254.44 147.842C254.44 147.471 254.492 147.139 254.596 146.846C254.7 146.553 254.857 146.289 255.065 146.055C255.228 145.859 255.443 145.687 255.71 145.537C255.976 145.381 256.227 145.257 256.461 145.166C256.754 145.055 257.347 144.85 258.239 144.551C259.137 144.251 259.743 144.017 260.055 143.848V142.881C260.055 142.796 260.036 142.633 259.997 142.393C259.964 142.152 259.889 141.924 259.772 141.709C259.642 141.468 259.456 141.26 259.215 141.084C258.981 140.902 258.646 140.811 258.21 140.811C257.91 140.811 257.63 140.863 257.37 140.967C257.116 141.064 256.937 141.169 256.833 141.279C256.833 141.41 256.862 141.602 256.92 141.855C256.986 142.109 257.018 142.344 257.018 142.559C257.018 142.786 256.914 142.995 256.706 143.184C256.504 143.372 256.221 143.467 255.856 143.467C255.53 143.467 255.29 143.353 255.133 143.125C254.984 142.891 254.909 142.63 254.909 142.344C254.909 142.044 255.013 141.758 255.221 141.484C255.436 141.211 255.713 140.967 256.051 140.752C256.344 140.57 256.699 140.417 257.116 140.293C257.532 140.163 257.939 140.098 258.336 140.098C258.883 140.098 259.359 140.137 259.762 140.215C260.172 140.286 260.544 140.446 260.876 140.693C261.208 140.934 261.458 141.263 261.628 141.68C261.803 142.09 261.891 142.62 261.891 143.271C261.891 144.202 261.881 145.029 261.862 145.752C261.842 146.468 261.833 147.253 261.833 148.105C261.833 148.359 261.875 148.561 261.96 148.711C262.051 148.861 262.187 148.988 262.37 149.092C262.467 149.15 262.62 149.183 262.829 149.189C263.044 149.196 263.262 149.199 263.483 149.199V149.824ZM260.075 144.668C259.521 144.831 259.036 144.99 258.62 145.146C258.203 145.303 257.816 145.498 257.458 145.732C257.132 145.954 256.875 146.217 256.686 146.523C256.497 146.823 256.403 147.181 256.403 147.598C256.403 148.138 256.543 148.535 256.823 148.789C257.109 149.043 257.471 149.17 257.907 149.17C258.369 149.17 258.776 149.059 259.128 148.838C259.479 148.61 259.775 148.343 260.016 148.037L260.075 144.668ZM274.674 150H269.967V149.355C270.117 149.342 270.27 149.329 270.426 149.316C270.583 149.303 270.719 149.277 270.836 149.238C271.019 149.18 271.159 149.079 271.256 148.936C271.354 148.786 271.403 148.594 271.403 148.359V141.172H268.727C268.727 142.76 268.616 144.128 268.395 145.273C268.174 146.419 267.887 147.354 267.536 148.076C267.191 148.786 266.8 149.316 266.364 149.668C265.928 150.02 265.482 150.195 265.026 150.195C264.557 150.195 264.202 150.075 263.961 149.834C263.721 149.587 263.6 149.3 263.6 148.975C263.6 148.74 263.675 148.519 263.825 148.311C263.981 148.102 264.206 147.998 264.499 147.998C264.772 147.998 265.019 148.076 265.241 148.232C265.462 148.389 265.677 148.607 265.885 148.887C266.042 148.743 266.224 148.48 266.432 148.096C266.647 147.705 266.842 147.223 267.018 146.65C267.213 146.032 267.373 145.391 267.497 144.727C267.62 144.062 267.682 143.301 267.682 142.441C267.682 142.103 267.64 141.852 267.555 141.689C267.471 141.527 267.337 141.4 267.155 141.309C267.031 141.243 266.829 141.185 266.549 141.133C266.269 141.074 266.042 141.035 265.866 141.016V140.371H274.635V141.016C274.447 141.029 274.28 141.045 274.137 141.064C274.001 141.084 273.874 141.107 273.756 141.133C273.574 141.185 273.437 141.289 273.346 141.445C273.262 141.595 273.219 141.784 273.219 142.012V148.262C273.219 148.49 273.258 148.675 273.336 148.818C273.415 148.955 273.548 149.062 273.737 149.141C273.874 149.206 274.02 149.255 274.176 149.287C274.339 149.32 274.505 149.342 274.674 149.355V150ZM285.446 145.088C285.446 145.765 285.338 146.432 285.124 147.09C284.909 147.741 284.603 148.294 284.206 148.75C283.756 149.271 283.236 149.658 282.643 149.912C282.051 150.166 281.387 150.293 280.651 150.293C280.039 150.293 279.456 150.179 278.903 149.951C278.35 149.717 277.858 149.378 277.428 148.936C277.005 148.499 276.667 147.969 276.413 147.344C276.165 146.712 276.042 146.006 276.042 145.225C276.042 143.721 276.478 142.49 277.35 141.533C278.229 140.576 279.378 140.098 280.797 140.098C282.145 140.098 283.255 140.553 284.128 141.465C285.006 142.37 285.446 143.577 285.446 145.088ZM283.424 145.107C283.424 144.619 283.376 144.105 283.278 143.564C283.18 143.018 283.034 142.555 282.838 142.178C282.63 141.774 282.357 141.452 282.018 141.211C281.68 140.964 281.266 140.84 280.778 140.84C280.277 140.84 279.847 140.964 279.489 141.211C279.137 141.458 278.851 141.797 278.629 142.227C278.421 142.624 278.275 143.076 278.19 143.584C278.105 144.092 278.063 144.583 278.063 145.059C278.063 145.684 278.112 146.263 278.21 146.797C278.314 147.324 278.476 147.796 278.698 148.213C278.919 148.63 279.196 148.958 279.528 149.199C279.866 149.434 280.283 149.551 280.778 149.551C281.592 149.551 282.236 149.157 282.711 148.369C283.187 147.581 283.424 146.494 283.424 145.107ZM297.633 150H292.926V149.355C293.076 149.342 293.229 149.329 293.385 149.316C293.548 149.303 293.688 149.277 293.805 149.238C293.988 149.18 294.128 149.079 294.225 148.936C294.323 148.786 294.372 148.594 294.372 148.359V145.293H290.085V148.262C290.085 148.483 290.13 148.665 290.221 148.809C290.312 148.952 290.449 149.062 290.631 149.141C290.768 149.206 290.915 149.255 291.071 149.287C291.234 149.32 291.4 149.342 291.569 149.355V150H286.862V149.355C287.012 149.342 287.165 149.329 287.321 149.316C287.484 149.303 287.624 149.277 287.741 149.238C287.923 149.18 288.057 149.079 288.141 148.936C288.232 148.786 288.278 148.594 288.278 148.359V142.109C288.278 141.895 288.232 141.715 288.141 141.572C288.05 141.423 287.913 141.309 287.731 141.23C287.562 141.152 287.396 141.1 287.233 141.074C287.077 141.048 286.93 141.029 286.794 141.016V140.371H291.501V141.016C291.312 141.029 291.146 141.045 291.003 141.064C290.866 141.084 290.739 141.107 290.622 141.133C290.439 141.185 290.303 141.289 290.211 141.445C290.127 141.595 290.085 141.784 290.085 142.012V144.492H294.372V142.109C294.372 141.895 294.326 141.715 294.235 141.572C294.144 141.423 294.007 141.309 293.825 141.23C293.655 141.152 293.489 141.1 293.327 141.074C293.17 141.048 293.024 141.029 292.887 141.016V140.371H297.594V141.016C297.405 141.029 297.239 141.045 297.096 141.064C296.96 141.084 296.833 141.107 296.715 141.133C296.533 141.185 296.396 141.289 296.305 141.445C296.221 141.595 296.178 141.784 296.178 142.012V148.262C296.178 148.49 296.217 148.675 296.295 148.818C296.374 148.955 296.507 149.062 296.696 149.141C296.833 149.206 296.979 149.255 297.135 149.287C297.298 149.32 297.464 149.342 297.633 149.355V150ZM309.801 145.459H303.981V143.926H309.801V145.459ZM332.077 150H316.139V149.355C316.289 149.342 316.448 149.329 316.618 149.316C316.794 149.303 316.94 149.277 317.057 149.238C317.239 149.18 317.373 149.079 317.458 148.936C317.549 148.786 317.594 148.594 317.594 148.359V142.109C317.594 141.895 317.555 141.715 317.477 141.572C317.399 141.429 317.266 141.315 317.077 141.23C316.907 141.152 316.741 141.1 316.579 141.074C316.422 141.048 316.276 141.029 316.139 141.016V140.371H320.749V141.016C320.56 141.029 320.404 141.045 320.28 141.064C320.156 141.084 320.036 141.107 319.919 141.133C319.717 141.191 319.58 141.305 319.508 141.475C319.443 141.644 319.411 141.823 319.411 142.012V148.301C319.411 148.652 319.492 148.896 319.655 149.033C319.818 149.163 320.042 149.232 320.329 149.238C320.478 149.238 320.638 149.245 320.807 149.258C320.976 149.264 321.185 149.268 321.432 149.268C321.628 149.268 321.807 149.264 321.969 149.258C322.132 149.251 322.337 149.245 322.585 149.238C322.864 149.225 323.034 149.163 323.092 149.053C323.151 148.942 323.18 148.75 323.18 148.477V142.109C323.18 141.895 323.148 141.715 323.083 141.572C323.017 141.423 322.894 141.309 322.711 141.23C322.542 141.152 322.383 141.1 322.233 141.074C322.09 141.048 321.947 141.029 321.803 141.016V140.371H326.344V141.016C326.155 141.029 325.993 141.045 325.856 141.064C325.726 141.084 325.602 141.107 325.485 141.133C325.29 141.185 325.159 141.296 325.094 141.465C325.029 141.634 324.997 141.816 324.997 142.012V148.32C324.997 148.672 325.078 148.913 325.241 149.043C325.41 149.167 325.635 149.232 325.915 149.238C326.058 149.238 326.227 149.245 326.422 149.258C326.624 149.264 326.829 149.268 327.038 149.268C327.174 149.268 327.347 149.264 327.555 149.258C327.77 149.251 327.975 149.245 328.17 149.238C328.45 149.225 328.62 149.163 328.678 149.053C328.737 148.942 328.766 148.75 328.766 148.477V142.109C328.766 141.895 328.734 141.715 328.669 141.572C328.603 141.423 328.48 141.309 328.297 141.23C328.128 141.152 327.969 141.1 327.819 141.074C327.676 141.048 327.532 141.029 327.389 141.016V140.371H331.999V141.016C331.81 141.029 331.644 141.045 331.501 141.064C331.364 141.084 331.237 141.107 331.12 141.133C330.937 141.185 330.801 141.289 330.71 141.445C330.625 141.595 330.583 141.784 330.583 142.012V148.262C330.583 148.49 330.622 148.675 330.7 148.818C330.778 148.955 330.911 149.062 331.1 149.141C331.243 149.206 331.396 149.255 331.559 149.287C331.728 149.32 331.901 149.342 332.077 149.355V150ZM341.92 143.457H341.325C341.266 143.275 341.178 143.06 341.061 142.812C340.95 142.565 340.827 142.331 340.69 142.109C340.547 141.868 340.384 141.657 340.202 141.475C340.026 141.286 339.84 141.178 339.645 141.152C339.443 141.133 339.219 141.12 338.971 141.113C338.724 141.1 338.512 141.094 338.336 141.094V148.262C338.336 148.483 338.382 148.665 338.473 148.809C338.564 148.952 338.701 149.062 338.883 149.141C339.027 149.206 339.189 149.255 339.372 149.287C339.554 149.32 339.733 149.342 339.909 149.355V150H335.006V149.355C335.156 149.342 335.325 149.329 335.514 149.316C335.71 149.303 335.866 149.277 335.983 149.238C336.165 149.18 336.299 149.079 336.383 148.936C336.475 148.786 336.52 148.594 336.52 148.359V141.094C336.312 141.1 336.077 141.11 335.817 141.123C335.557 141.13 335.351 141.139 335.202 141.152C335.032 141.165 334.85 141.273 334.655 141.475C334.466 141.676 334.3 141.888 334.157 142.109C334.02 142.331 333.893 142.578 333.776 142.852C333.659 143.118 333.577 143.32 333.532 143.457H332.936V140.371H341.92V143.457ZM352.223 145.088C352.223 145.765 352.116 146.432 351.901 147.09C351.686 147.741 351.38 148.294 350.983 148.75C350.534 149.271 350.013 149.658 349.42 149.912C348.828 150.166 348.164 150.293 347.428 150.293C346.816 150.293 346.234 150.179 345.68 149.951C345.127 149.717 344.635 149.378 344.206 148.936C343.782 148.499 343.444 147.969 343.19 147.344C342.943 146.712 342.819 146.006 342.819 145.225C342.819 143.721 343.255 142.49 344.128 141.533C345.006 140.576 346.155 140.098 347.575 140.098C348.922 140.098 350.032 140.553 350.905 141.465C351.784 142.37 352.223 143.577 352.223 145.088ZM350.202 145.107C350.202 144.619 350.153 144.105 350.055 143.564C349.958 143.018 349.811 142.555 349.616 142.178C349.407 141.774 349.134 141.452 348.795 141.211C348.457 140.964 348.044 140.84 347.555 140.84C347.054 140.84 346.624 140.964 346.266 141.211C345.915 141.458 345.628 141.797 345.407 142.227C345.198 142.624 345.052 143.076 344.967 143.584C344.883 144.092 344.84 144.583 344.84 145.059C344.84 145.684 344.889 146.263 344.987 146.797C345.091 147.324 345.254 147.796 345.475 148.213C345.697 148.63 345.973 148.958 346.305 149.199C346.644 149.434 347.06 149.551 347.555 149.551C348.369 149.551 349.014 149.157 349.489 148.369C349.964 147.581 350.202 146.494 350.202 145.107ZM362.419 141.514C362.803 141.969 363.099 142.5 363.307 143.105C363.522 143.704 363.629 144.391 363.629 145.166C363.629 145.928 363.503 146.624 363.249 147.256C362.995 147.881 362.659 148.415 362.243 148.857C361.807 149.307 361.322 149.652 360.788 149.893C360.254 150.133 359.687 150.254 359.088 150.254C358.509 150.254 358.034 150.189 357.663 150.059C357.292 149.928 356.989 149.775 356.754 149.6H356.676V152.49C356.676 152.725 356.722 152.92 356.813 153.076C356.904 153.232 357.044 153.346 357.233 153.418C357.389 153.477 357.611 153.532 357.897 153.584C358.19 153.643 358.431 153.675 358.62 153.682V154.336H353.239V153.682C353.441 153.669 353.636 153.652 353.825 153.633C354.014 153.613 354.183 153.581 354.333 153.535C354.528 153.47 354.665 153.356 354.743 153.193C354.821 153.031 354.86 152.839 354.86 152.617V142.373C354.86 142.178 354.811 141.989 354.713 141.807C354.616 141.624 354.489 141.478 354.333 141.367C354.215 141.289 354.053 141.23 353.844 141.191C353.636 141.146 353.434 141.117 353.239 141.104V140.469L356.52 140.254L356.657 140.371V141.455L356.735 141.475C357.073 141.084 357.493 140.758 357.995 140.498C358.496 140.238 358.994 140.107 359.489 140.107C360.088 140.107 360.635 140.234 361.129 140.488C361.631 140.742 362.06 141.084 362.419 141.514ZM360.827 148.438C361.087 148.034 361.279 147.565 361.403 147.031C361.527 146.497 361.588 145.902 361.588 145.244C361.588 144.762 361.536 144.271 361.432 143.77C361.328 143.268 361.165 142.832 360.944 142.461C360.723 142.083 360.433 141.777 360.075 141.543C359.717 141.309 359.287 141.191 358.786 141.191C358.304 141.191 357.894 141.299 357.555 141.514C357.217 141.722 356.924 141.973 356.676 142.266V147.959C356.735 148.135 356.829 148.317 356.96 148.506C357.096 148.695 357.246 148.857 357.409 148.994C357.611 149.157 357.829 149.29 358.063 149.395C358.297 149.492 358.584 149.541 358.922 149.541C359.287 149.541 359.639 149.447 359.977 149.258C360.316 149.062 360.599 148.789 360.827 148.438Z" fill="black"/>
</svg>
